<svg width="900" height="600" viewBox="0 0 900 600" fill="none" xmlns="http://www.w3.org/2000/svg">
  <defs>
    <linearGradient id="bg" x1="0" y1="0" x2="0" y2="1">
      <stop offset="0%" stop-color="#1A3D70" />
      <stop offset="100%" stop-color="#0B1830" />
    </linearGradient>
    <linearGradient id="sun" x1="0" y1="0" x2="1" y2="1">
      <stop offset="0%" stop-color="#FFDD5C" />
      <stop offset="100%" stop-color="#FFB14D" />
    </linearGradient>
    <linearGradient id="pool" x1="0" y1="0" x2="1" y2="0">
      <stop offset="0%" stop-color="#57C4F2" />
      <stop offset="100%" stop-color="#1A8ED5" />
    </linearGradient>
  </defs>
  <rect width="900" height="600" fill="url(#bg)" />
  <circle cx="720" cy="120" r="65" fill="url(#sun)" />
  <rect x="120" y="220" width="660" height="280" rx="32" fill="#142845" />
  <rect x="160" y="260" width="580" height="220" rx="20" fill="#224F80" />
  <rect x="220" y="320" width="100" height="120" rx="16" fill="#6AA9E2" />
  <rect x="360" y="320" width="100" height="120" rx="16" fill="#6AA9E2" />
  <rect x="500" y="320" width="100" height="120" rx="16" fill="#6AA9E2" />
  <rect x="640" y="320" width="100" height="120" rx="16" fill="#6AA9E2" />
  <rect x="260" y="260" width="100" height="40" rx="10" fill="#ffffff" opacity="0.15" />
  <rect x="400" y="260" width="100" height="40" rx="10" fill="#ffffff" opacity="0.15" />
  <rect x="540" y="260" width="100" height="40" rx="10" fill="#ffffff" opacity="0.15" />
  <path d="M180 500 C260 450 340 450 420 500" stroke="#4ACFF2" stroke-width="20" stroke-linecap="round" fill="none" opacity="0.8" />
  <path d="M320 500 C400 450 480 450 560 500" stroke="#4ACFF2" stroke-width="20" stroke-linecap="round" fill="none" opacity="0.8" />
  <rect x="160" y="520" width="580" height="40" rx="20" fill="url(#pool)" />
  <circle cx="260" cy="520" r="10" fill="#fff" opacity="0.8" />
  <circle cx="340" cy="520" r="8" fill="#fff" opacity="0.7" />
  <circle cx="420" cy="520" r="6" fill="#fff" opacity="0.6" />
  <path d="M570 480 L640 470 L680 530 L620 540 Z" fill="#F9B453" />
  <path d="M620 470 L650 520" stroke="#F2D45B" stroke-width="10" stroke-linecap="round" />
  <text x="150" y="440" fill="#FFFFFF" font-family="Inter, sans-serif" font-size="48" font-weight="700">Aurora Hotel</text>
  <text x="150" y="490" fill="#A8C9F7" font-family="Inter, sans-serif" font-size="24">Luxury booking experience</text>
</svg>
